<svg width="128" height="96" viewBox="0 0 128 96" xmlns="http://www.w3.org/2000/svg"><path d="M 0.0,48.0 L 0.0,0.0 L 64.0,0.0 L 128.0,0.0 L 128.0,48.0 L 128.0,96.0 L 64.0,96.0 L 0.0,96.0 L 0.0,48.0 Z M 117.79999999999998,89.80000000000003 C 118.4807755262959,89.11922447370412 119.0,85.85884815681237 119.0,82.26481670565505 C 119.0,77.99456396101995 119.55229847858851,75.08671939059185 120.69444541151162,73.34358284250357 C 123.61713739992867,68.88299105964444 120.95986020173802,68.00150181805978 104.55887036489518,67.99098514586166 L 90.5,67.98197029172331 L 88.0,70.99154160395683 C 86.066585067756,73.31904164984702 84.20173228151616,74.23820526067574 79.77152341118986,75.04725919667925 C 72.93646993049646,76.29549084516633 72.48789855371382,76.1045085647051 62.03089341133506,67.494066662433 C 52.21134133148841,59.40851238196326 50.63210526172178,58.59366872065791 47.75,60.12550682721893 C 42.429047624528,62.95359146389006 21.434619615456434,76.38310494244863 20.755755144748967,77.39292535228955 C 20.342288385224546,78.00796294900373 20.897848315187115,79.23791362785848 22.005755144748967,80.16029258964957 C 23.102589815137037,81.07345351395684 24.0,82.25625086850636 24.0,82.78873115531518 C 24.0,83.321211442124 20.522487022050882,84.27409275473092 16.27219338233529,84.90624518333057 C 8.124050819221086,86.11813041914536 5.834740165243608,87.2347401652449 7.6914816254059915,89.09148162540606 C 8.480123792614613,89.88012379261416 11.849391444097272,89.71075410009828 19.83485869572312,88.48104628655759 C 31.399273409835526,86.70020482983837 36.35084116752357,86.83387981723635 41.716715357461126,89.07177977878555 C 44.51014270634488,90.23681099930512 46.94456020633222,90.1106931871275 60.216715357461126,88.11336589731363 C 80.93943814986156,84.99480231203269 80.0,85.28471649292223 80.0,82.00816912274001 C 80.0,79.7755271859825 80.53748376861257,79.1299733136486 82.75,78.70523561555562 C 86.56214483884536,77.97341652167584 88.0,79.53922959056578 88.0,84.42244471544217 C 88.0,86.72010012194897 88.54,89.14 89.2,89.8 C 90.86606371235631,91.4660637123563 116.13393628764359,91.46606371235633 117.79999999999998,89.80000000000003 Z M 103.39221679756156,61.38202532291119 C 109.68870258972728,59.236596987839 117.23659698783894,51.688702589727356 119.38202532291116,45.392216797561616 C 122.83238224649203,35.26597627389653 120.57643560141626,25.671673696654285 112.9523809523809,18.047619047619012 C 102.19007377607515,7.28531187131334 86.80992622392469,7.285311871313388 76.04761904761898,18.04761904761912 C 65.27760228338308,28.81763581185502 65.28459012653681,44.18935203129871 76.06440324851738,54.96916515327929 C 83.6489002312728,62.55366213603472 93.30410015076785,64.8193921360745 103.39221679756156,61.38202532291119 Z M 57.80000000000011,51.7999999999999 C 59.49610827550814,50.103891724491575 59.49610827550802,10.896108275508045 57.79999999999999,9.20000000000001 C 56.09661343948365,7.496613439483671 10.903386560516726,7.496613439483558 9.20000000000011,9.19999999999989 C 7.50389172449189,10.896108275507823 7.503891724491784,50.10389172449179 9.2,51.8 C 10.903386560516493,53.503386560516496 56.096613439483896,53.5033865605164 57.80000000000011,51.7999999999999 Z" fill="#feffff" stroke="none" shape-rendering="crispEdges" /><path d="M 9.2,51.8 C 7.503891724491789,50.103891724491795 7.50389172449189,10.896108275507823 9.20000000000011,9.19999999999989 C 10.903386560516726,7.496613439483558 56.09661343948365,7.496613439483671 57.79999999999999,9.20000000000001 C 59.49610827550804,10.896108275508059 59.49610827550815,50.10389172449157 57.80000000000011,51.7999999999999 C 56.09661343948389,53.503386560516404 10.903386560516491,53.503386560516496 9.2,51.8 Z" fill="#e63845" stroke="none" shape-rendering="crispEdges" /><path d="M 85.19642857142856,61.31986215538846 C 79.34044257533438,59.248504802617 71.6655811157695,51.401611116792466 69.61797467708882,45.392216797561595 C 66.16761775350797,35.26597627389651 68.42356439858368,25.671673696654427 76.04761904761898,18.04761904761912 C 86.80992622392469,7.285311871313384 102.19007377607514,7.285311871313336 112.9523809523809,18.047619047619012 C 123.71468812868665,28.80992622392465 123.71468812868665,44.19007377607528 112.95238095238092,54.95238095238098 C 105.36163145076472,62.54313045399715 95.22746947042526,64.86800423358787 85.19642857142856,61.31986215538846 Z" fill="#457b9c" stroke="none" shape-rendering="crispEdges" /><path d="M 119.29501777802216,73.39203320348659 C 119.5389196547063,72.23265146540422 119.30274889641292,70.50546574170126 118.77019387070355,69.5538427063689 C 117.92004490191866,68.03471077989406 118.05800081161865,67.96067357538143 119.9009560028887,68.9469932613703 C 122.4142966959391,70.29209237983784 122.49560859972648,71.0066187230392 120.42577991020731,73.55887036489511 C 118.88094078042661,75.46377110636759 118.85983643980472,75.46065728765846 119.29501777802216,73.39203320348659 Z" fill="#111010" stroke="none" shape-rendering="crispEdges" /><path d="M 7.4461492836873475,88.9128677106876 C 6.275931758019,87.01941597992541 8.328241097667316,86.08776089850564 16.272193382334986,84.90624518333061 C 20.522487022050747,84.27409275473094 24.0,83.3127961633381 24.0,82.770030535791 C 24.0,82.22547619123134 25.084459769262963,82.05536601617776 26.419656751672267,82.39047912663517 C 29.917939153037434,83.26849211814485 68.26506331243823,77.16254168576938 69.54173124762816,75.52422109072558 C 70.2681047024646,74.59208160640884 71.10100080488085,74.47701871048471 72.29306295956636,75.14413023244794 C 74.22021879320222,76.22262085995746 84.48390754695947,74.67320812431724 86.50082136378242,72.99931832860557 C 87.43481909989794,72.22416905516549 87.72727272727275,72.93969701291424 87.72727272727275,76.0 C 87.72727272727275,78.83685055616755 87.3997963373536,79.74782960473802 86.61363636363637,79.09793141193914 C 85.29289395322407,78.0061076936427 80.0,78.83657733912145 80.0,80.1356291808296 C 79.99999999999999,80.63199036240981 78.93424324241191,80.7706161376197 77.63165164980427,80.4436864590738 C 74.54051238488145,79.6678598899811 40.801445640449856,84.91906261917516 39.5,86.3785581829687 C 38.95,86.99535118233592 36.56245503968258,87.36040221317505 34.194344532627966,87.18978269594454 C 31.826234025573342,87.01916317871404 25.472536064714664,87.58166317871404 20.075015730719787,88.43978269594454 C 8.397900394719434,90.29625751303098 8.30332089899064,90.29980051843998 7.4461492836873475,88.9128677106876 Z" fill="#111010" stroke="none" shape-rendering="crispEdges" /><path d="M 24.370048056627333,81.55960852245866 C 20.79847606038344,80.00531428301457 19.83558396788674,78.86351180479883 20.815983005625053,77.3451796008833 C 21.441436551733776,76.37654721289076 42.47312728488891,62.930147925050946 47.74693477069697,60.12714728815796 C 50.6228843608238,58.598595372963715 52.385565877626476,59.517347832047705 62.3963528531486,67.76278013453596 C 69.94639958596345,73.98141203313358 71.14996711292633,75.64060153303852 68.75,76.52166104149978 C 67.47150823732896,76.99101219132335 29.41248696374284,83.03173393915706 28.180420491840234,82.96085818936479 C 27.806189221328104,82.93933019351542 26.0915216254823,82.30876784340767 24.370048056627333,81.55960852245866 Z" fill="#f4a160" stroke="none" shape-rendering="crispEdges" /><path d="M 40.441129635104886,88.56732058356471 C 39.173100292983214,87.63143278656266 38.8467570021138,86.81191599082423 39.5,86.20394568199752 C 40.948179100776535,84.85613193124246 74.82339810174497,79.73885968531566 77.63165164980407,80.44368645907375 C 81.34590352897276,81.37590433901865 80.74823948210579,84.78103666692199 76.75,85.46681032010372 C 62.96787795829032,87.83070478501503 47.98728608829465,89.99964042455295 45.441129635104886,89.99980376638425 C 43.75875093441257,89.9999116948729 41.50875093441257,89.35529426260412 40.441129635104886,88.56732058356471 Z" fill="#f4a160" stroke="none" shape-rendering="crispEdges" /><path d="M 89.1330497048816,89.66031508692353 C 87.51653532918796,87.71253442192265 87.38635713441451,71.44432070698744 88.97199692770062,69.53374163793747 C 90.00352715707591,68.29082374846372 92.86512155110296,68.0 104.06342772106723,68.0 C 113.13591065658157,68.0 118.11831962258849,68.3824281765093 118.57012937729466,69.11347171607261 C 119.64695472952693,70.855811735932 119.01475382101879,88.27729644596077 117.82257325826076,89.71378614518383 C 116.27180562169205,91.58234683591168 90.68862223728325,91.53466532294802 89.1330497048816,89.66031508692353 Z" fill="#299c8f" stroke="none" shape-rendering="crispEdges" /></svg>